<?xml version="1.0" encoding="utf-8"?>
<!-- Generator: Adobe Illustrator 22.0.1, SVG Export Plug-In . SVG Version: 6.00 Build 0)  -->
<svg version="1.1" id="图层_1" xmlns="http://www.w3.org/2000/svg" xmlns:xlink="http://www.w3.org/1999/xlink" x="0px" y="0px"
	 viewBox="0 0 200 200" style="enable-background:new 0 0 200 200;" xml:space="preserve">
<style type="text/css">
	.st0{fill:#FEAC5E;}
</style>
<path class="st0" d="M101.1,16.4c-47.2,0-85.9,33.8-85.9,75.4c0,5.1,0.6,10.6,1.9,16c7.6,32,36,47.9,42.2,51.1l11.9,16.1
	c1,1.3,2.6,2.1,4.3,2.1c0.7,0,1.5-0.1,2.1-0.4l24.3-9.5c46.8-0.5,84.7-34.1,84.7-75.4C187,50.2,148.5,16.4,101.1,16.4L101.1,16.4z
	 M101.1,157.9c-0.7,0-1.5,0.1-2.1,0.4l-21.3,8.4l-10.3-13.8c-0.4-0.6-1.1-1.2-1.9-1.6c-0.3-0.1-30.8-14.3-38.2-45.4
	c-1.1-4.7-1.8-9.5-1.8-14.1c0-36.6,33.9-66.3,75.6-66.3s75.6,29.7,75.6,66.3S142.8,157.9,101.1,157.9L101.1,157.9z"/>
<path class="st0" d="M76,85.2c0,3.1,2.5,5.6,5.6,5.6s5.6-2.5,5.6-5.6l0,0c0-3.1-2.5-5.6-5.6-5.6C78.5,79.6,76,82.1,76,85.2L76,85.2z
	"/>
<path class="st0" d="M95.6,85.2c0,3.1,2.5,5.6,5.6,5.6s5.6-2.5,5.6-5.6l0,0c0-3.1-2.5-5.6-5.6-5.6S95.6,82.1,95.6,85.2L95.6,85.2z"
	/>
<path class="st0" d="M115,85.2c0,3.1,2.5,5.6,5.6,5.6c3.1,0,5.6-2.5,5.6-5.6s-2.5-5.6-5.6-5.6C117.5,79.7,115,82.2,115,85.2z"/>
</svg>
