<?xml version="1.0" encoding="utf-8"?>
<!-- Generator: Adobe Illustrator 22.0.1, SVG Export Plug-In . SVG Version: 6.00 Build 0)  -->
<svg version="1.1" id="图层_1" xmlns="http://www.w3.org/2000/svg" xmlns:xlink="http://www.w3.org/1999/xlink" x="0px" y="0px"
	 viewBox="0 0 200 200" style="enable-background:new 0 0 200 200;" xml:space="preserve">
<style type="text/css">
	.st0{fill:#C779D0;}
</style>
<path class="st0" d="M100.1,155.1c-25.6,0-50.6-6.8-69.9-19.2c-19-12.1-29.8-27.8-29.8-43s10.9-31,29.9-43
	c19.5-12.4,44.3-19.2,69.9-19.2s50.6,6.8,69.9,19.2c19,12.1,29.9,27.8,29.9,43s-10.9,31-29.9,43
	C150.6,148.2,125.7,155.1,100.1,155.1z M100.1,37.3c-24.4,0-48,6.5-66.4,18.2C17,66.1,7,80.1,7,92.7s10,26.6,26.7,37.3
	c18.3,11.8,41.9,18.2,66.4,18.2s48-6.5,66.4-18.2c16.7-10.7,26.7-24.6,26.7-37.3s-10-26.6-26.7-37.3
	C148.1,43.8,124.5,37.3,100.1,37.3z"/>
<path class="st0" d="M100.1,126.6c-19.7,0-35.6-15.2-35.6-33.8S80.5,59,100.1,59s35.6,15.2,35.6,33.8S119.7,126.6,100.1,126.6z
	 M100.1,65.9c-15.6,0-28.2,12-28.2,26.8s12.6,26.8,28.2,26.8s28.2-12,28.2-26.8C128.3,78,115.6,65.9,100.1,65.9z"/>
<path class="st0" d="M81.7,97.1c-2,0-3.6-1.6-3.8-3.5c-0.1-6.1,2.5-11.9,7.4-15.9c1.5-1.3,3.9-1.2,5.2,0.3c1.3,1.5,1.2,3.7-0.3,4.9
	c-3.2,2.6-5,6.4-4.9,10.3C85.5,95.4,84,97,81.7,97.1C81.9,97.1,81.7,97.1,81.7,97.1z"/>
</svg>
