<?xml version="1.0" encoding="utf-8"?>
<!-- Generator: Adobe Illustrator 22.0.1, SVG Export Plug-In . SVG Version: 6.00 Build 0)  -->
<svg version="1.1" id="图层_1" xmlns="http://www.w3.org/2000/svg" xmlns:xlink="http://www.w3.org/1999/xlink" x="0px" y="0px"
	 viewBox="0 0 200 200" style="enable-background:new 0 0 200 200;" xml:space="preserve">
<style type="text/css">
	.st0{fill:#4BC0C8;}
</style>
<path class="st0" d="M184.9,69.5c-1.4-24.8-21-44.3-44.4-44.3h-0.1c-11.9,0-23.2,4.2-31.5,11.6c-3.3,3-6,6.1-8,9.8
	c-7.4-13-21.9-21.4-39.5-21.4c-23.5,0-42.9,19.5-44.4,44.3c-0.4,7-2.3,68.8,75.4,103.9c0.9,0.4,4,1.8,8.2,1.8c2.5,0,5.4-0.4,8.6-1.9
	c4.9-2.2,9.7-4.6,14.2-7.1c0.1-0.1,4.9-2.7,10.6-6.8c2.5-1.8,3.1-5.1,1.4-7.5c-1.8-2.5-5.1-3.1-7.5-1.4c-5.4,3.7-9.8,6.3-9.8,6.3
	c-4.2,2.3-8.6,4.6-13.2,6.7c-4.5,1.9-7.9,0.3-7.9,0.3c-0.1,0-0.1-0.1-0.3-0.1c-71.1-32.1-69.5-87.2-69-93.5C28.7,51,43.5,36,61.4,36
	c19.6,0,34,13,34,30.8v1.1c0.4,2.7,3,4.8,5.7,4.6c2.7-0.1,4.9-2.6,4.9-5.4c0-8.6,3.5-16.6,10.1-22.4c6.3-5.7,15-8.8,24.3-8.8h0.1
	c17.7,0,32.6,15,33.7,34.2c0.1,1.9,0.3,7-0.8,14c-0.4,3,1.5,5.7,4.5,6.1c3,0.4,5.7-1.5,6.1-4.5C185.2,78.1,185,72.3,184.9,69.5z"/>
<path class="st0" d="M165.1,108.4c0,3,2.4,5.4,5.4,5.4c3,0,5.4-2.4,5.4-5.4s-2.4-5.4-5.4-5.4C167.5,103,165.1,105.5,165.1,108.4z"/>
<path class="st0" d="M155.7,125c0,3,2.4,5.4,5.4,5.4c3,0,5.4-2.4,5.4-5.4s-2.4-5.4-5.4-5.4C158.1,119.7,155.7,122.1,155.7,125z"/>
<path class="st0" d="M142.1,140.7c0,3,2.4,5.4,5.4,5.4c3,0,5.4-2.4,5.4-5.4c0-3-2.4-5.4-5.4-5.4
	C144.5,135.3,142.1,137.7,142.1,140.7z"/>
</svg>
